<svg width="156" height="28" viewBox="0 0 156 28" fill="none" xmlns="http://www.w3.org/2000/svg">
<path d="M97.2295 8.43701C100.903 8.43701 103.037 9.86802 103.037 12.4604H98.958C98.958 11.5425 98.283 11.0563 97.1758 11.0562C96.2845 11.0562 95.6896 11.4887 95.6895 12.1089C95.6895 12.7032 96.068 13.0817 97.1211 13.3511L99.876 14.1069C101.929 14.6469 103.172 15.889 103.172 17.8599C103.172 20.5598 100.929 22.1528 97.4717 22.1528C93.7718 22.1528 91.3145 20.4233 91.3145 17.8853H95.4199C95.4199 18.7762 96.2842 19.3979 97.5537 19.3979C98.445 19.3979 99.0664 18.9653 99.0664 18.2104C99.0663 17.6163 98.7697 17.2659 97.6621 16.9966L94.9336 16.3218C92.8532 15.8089 91.666 14.4849 91.666 12.5142C91.6662 10.0566 93.8809 8.43706 97.2295 8.43701ZM111.106 8.43701C115.158 8.43703 117.914 10.9474 117.914 14.6196C117.914 15.2928 117.887 15.6985 117.806 16.4272H108.188C108.27 18.1288 109.404 19.0474 111.241 19.0474C112.511 19.0473 113.322 18.6959 113.673 17.8853H117.725C117.319 20.4505 114.7 22.1528 111.242 22.1528C106.812 22.1527 104.084 19.6414 104.084 15.2944C104.084 11.0278 106.866 8.43701 111.106 8.43701ZM149.343 8.43701C153.017 8.43701 155.15 9.86802 155.15 12.4604H151.071C151.071 11.5423 150.396 11.0562 149.288 11.0562C148.397 11.0563 147.803 11.4888 147.803 12.1089C147.803 12.7032 148.181 13.0817 149.234 13.3511L151.989 14.1069C154.043 14.6469 155.285 15.889 155.285 17.8599C155.285 20.5597 153.043 22.1528 149.585 22.1528C145.886 22.1528 143.428 20.4233 143.428 17.8853H147.533C147.533 18.7762 148.397 19.3979 149.667 19.3979C150.558 19.3978 151.18 18.9653 151.18 18.2104C151.18 17.6163 150.883 17.2659 149.775 16.9966L147.047 16.3218C144.966 15.809 143.778 14.485 143.778 12.5142C143.778 10.0565 145.994 8.43702 149.343 8.43701ZM125.169 8.43506C127.06 8.43506 128.545 9.32579 129.248 10.6489V8.78564H133.354V21.8003H129.248V19.9653C128.546 21.2613 126.926 22.1518 125.116 22.1519C121.226 22.1519 118.983 19.2083 118.983 15.2925C118.984 11.4041 121.388 8.43507 125.169 8.43506ZM90.0703 21.7788H85.9648V19.9419C85.2629 21.2381 83.6418 22.1294 81.832 22.1294C77.9417 22.1294 75.7002 19.1855 75.7002 15.271C75.7004 11.3826 78.1055 8.41357 81.8867 8.41357C83.7779 8.41369 85.2625 9.30428 85.9658 10.6274V4.27783L90.0703 2.86279V21.7788ZM140.719 8.78662H143.001V12.0532H140.719V21.8003H136.586V12.0532H134.533V8.78662H136.586V5.62451L140.719 4.19971V8.78662ZM40.3223 16.9438L43.2402 8.76318H47.832L42.1865 21.7769H38.458L32.8398 8.76318H37.4053L40.3223 16.9438ZM53.0166 21.7769H48.9111V8.76318H53.0166V21.7769ZM61.6084 16.9438L64.5264 8.76318H69.1191L63.4727 21.7769H59.7451L54.126 8.76318H58.6914L61.6084 16.9438ZM74.3018 21.7769H70.3252V8.76318H74.3018V21.7769ZM126.304 11.8911C124.387 11.8912 123.197 13.3219 123.197 15.2925C123.197 17.2633 124.385 18.7221 126.304 18.7222C128.357 18.7235 129.41 17.1831 129.41 15.2925C129.41 13.4293 128.357 11.8911 126.304 11.8911ZM83.0195 11.8687C81.1026 11.8688 79.9131 13.2993 79.9131 15.27C79.9131 17.2408 81.1012 18.6986 83.0195 18.6987C85.0728 18.7 86.127 17.1606 86.127 15.27C86.1269 13.4067 85.0727 11.8687 83.0195 11.8687ZM111.079 11.2173C109.297 11.2173 108.216 12.27 108.188 13.8628H113.835C113.808 12.1354 112.836 11.2173 111.079 11.2173Z" fill="#04092C"/>
<path d="M21.7543 19.1157L5.82092 9.29688H27.4264L21.7543 19.1157Z" fill="#0983B6"/>
<path d="M32.798 0.000244141L5.81995 9.29707L5.82067 9.2971L5.8213 9.29717L5.82093 9.29694H27.4264L32.798 0.000244141Z" fill="#003B90"/>
<path d="M5.82661 9.30871L5.81982 9.29639L21.7541 19.1157L16.6213 28L5.82661 9.30871Z" fill="#13BDC3"/>
<path d="M32.7982 0L5.82364 9.29512L0.451904 0.000952986L32.7982 0Z" fill="#CE3197"/>
</svg>
